<?xml version="1.0" encoding="utf-8"?>
<!-- Generator: Adobe Illustrator 23.1.0, SVG Export Plug-In . SVG Version: 6.00 Build 0)  -->
<svg version="1.1" id="Layer_1" xmlns="http://www.w3.org/2000/svg" xmlns:xlink="http://www.w3.org/1999/xlink" x="0px" y="0px"
	 viewBox="0 0 280.5 268.3" style="enable-background:new 0 0 280.5 268.3;" xml:space="preserve">
<style type="text/css">
	.st0{fill:#FFFF00;}
</style>
<polygon class="st0" points="170.8,170.7 170.8,97.6 231.7,97.6 231.7,0 0,0 0,97.6 0,170.7 0,182.9 0,268.3 280.5,268.3 
	280.5,170.7 "/>
<g>
	<rect x="37.1" y="63.6" width="7.3" height="7.3"/>
	<rect x="37.1" y="27.1" width="7.3" height="7.3"/>
	<rect x="44.4" y="70.9" width="21.9" height="7.3"/>
	<rect x="29.8" y="34.4" width="7.3" height="29.2"/>
	<rect x="66.3" y="63.6" width="7.3" height="7.3"/>
	<polygon points="66.3,27.1 66.3,19.8 44.4,19.8 44.4,27.1 66.3,27.1 66.3,34.4 73.6,34.4 73.6,27.1 	"/>
	<rect x="73.6" y="34.4" width="7.3" height="7.3"/>
	<polygon points="51.7,56.3 73.6,56.3 73.6,63.6 80.9,63.6 80.9,56.3 80.9,49 51.7,49 	"/>
	<polygon points="124.7,19.8 102.8,19.8 95.5,19.8 88.2,19.8 88.2,27.1 95.5,27.1 102.8,27.1 110.1,27.1 110.1,49 110.1,70.9 
		102.8,70.9 95.5,70.9 88.2,70.9 88.2,78.2 95.5,78.2 102.8,78.2 124.7,78.2 132,78.2 139.3,78.2 139.3,70.9 132,70.9 124.7,70.9 
		117.4,70.9 117.4,49 117.4,27.1 124.7,27.1 132,27.1 139.3,27.1 139.3,19.8 132,19.8 	"/>
	<polygon points="153.9,27.1 183.1,27.1 190.4,27.1 197.7,27.1 197.7,19.8 190.4,19.8 183.1,19.8 153.9,19.8 146.6,19.8 146.6,27.1 
		146.6,34.4 146.6,41.7 146.6,49 146.6,63.6 146.6,70.9 146.6,78.2 153.9,78.2 153.9,70.9 153.9,63.6 153.9,49 190.4,49 197.7,49 
		197.7,41.7 190.4,41.7 153.9,41.7 153.9,34.4 	"/>
</g>
<g>
	<polygon points="73.6,112 73.6,119.3 66.3,119.3 66.3,126.6 73.6,126.6 73.6,133.9 73.6,141.2 73.6,148.5 73.6,155.8 73.6,163.1 
		80.9,163.1 80.9,155.8 80.9,148.5 80.9,141.2 80.9,133.9 80.9,119.3 80.9,112 80.9,104.7 73.6,104.7 	"/>
	<polygon points="44.4,133.9 51.7,133.9 51.7,141.2 59,141.2 59,133.9 66.3,133.9 66.3,126.6 44.4,126.6 	"/>
	<polygon points="37.1,119.3 37.1,112 37.1,104.7 29.8,104.7 29.8,112 29.8,119.3 29.8,148.5 29.8,155.8 29.8,163.1 37.1,163.1 
		37.1,155.8 37.1,148.5 37.1,126.6 44.4,126.6 44.4,119.3 	"/>
	<polygon points="124.7,104.7 95.5,104.7 88.2,104.7 88.2,112 88.2,119.3 88.2,126.6 88.2,133.9 88.2,148.5 88.2,155.8 88.2,163.1 
		95.5,163.1 124.7,163.1 132,163.1 139.3,163.1 139.3,155.8 132,155.8 124.7,155.8 95.5,155.8 95.5,148.5 95.5,133.9 132,133.9 
		139.3,133.9 139.3,126.6 132,126.6 95.5,126.6 95.5,119.3 95.5,112 124.7,112 132,112 139.3,112 139.3,104.7 132,104.7 	"/>
	<rect x="146.6" y="155.8" width="7.3" height="7.3"/>
</g>
<g>
	<polygon points="37.1,211.6 37.1,204.3 37.1,197 73.6,197 73.6,189.7 37.1,189.7 29.8,189.7 29.8,197 29.8,204.3 29.8,211.6 
		29.8,218.9 29.8,233.5 29.8,240.8 29.8,248.1 37.1,248.1 73.6,248.1 73.6,240.8 37.1,240.8 37.1,233.5 37.1,218.9 44.4,218.9 
		73.6,218.9 73.6,211.6 44.4,211.6 	"/>
	<polygon points="73.6,204.3 73.6,211.6 80.9,211.6 80.9,204.3 80.9,197 73.6,197 	"/>
	<polygon points="73.6,240.8 80.9,240.8 80.9,226.2 80.9,218.9 73.6,218.9 73.6,226.2 	"/>
	<polygon points="124.7,189.7 95.5,189.7 88.2,189.7 88.2,197 88.2,204.3 88.2,211.6 88.2,218.9 88.2,233.5 88.2,240.8 88.2,248.1 
		95.5,248.1 124.7,248.1 132,248.1 139.3,248.1 139.3,240.8 132,240.8 124.7,240.8 95.5,240.8 95.5,233.5 95.5,218.9 132,218.9 
		139.3,218.9 139.3,211.6 132,211.6 95.5,211.6 95.5,204.3 95.5,197 124.7,197 132,197 139.3,197 139.3,189.7 132,189.7 	"/>
	<polygon points="183.1,189.7 153.9,189.7 146.6,189.7 146.6,197 146.6,204.3 146.6,211.6 146.6,218.9 146.6,233.5 146.6,240.8 
		146.6,248.1 153.9,248.1 183.1,248.1 190.4,248.1 197.7,248.1 197.7,240.8 190.4,240.8 183.1,240.8 153.9,240.8 153.9,233.5 
		153.9,218.9 190.4,218.9 197.7,218.9 197.7,211.6 190.4,211.6 153.9,211.6 153.9,204.3 153.9,197 183.1,197 190.4,197 197.7,197 
		197.7,189.7 190.4,189.7 	"/>
	<polygon points="212.3,204.3 212.3,197 248.8,197 248.8,189.7 212.3,189.7 205,189.7 205,197 205,204.3 205,211.6 205,218.9 
		205,233.5 205,240.8 205,248.1 212.3,248.1 212.3,240.8 212.3,233.5 212.3,226.2 219.6,226.2 219.6,218.9 248.8,218.9 248.8,211.6 
		212.3,211.6 	"/>
	<rect x="248.8" y="240.8" width="7.3" height="7.3"/>
	<polygon points="248.8,197 248.8,204.3 248.8,211.6 256.1,211.6 256.1,204.3 256.1,197 	"/>
	<rect x="219.6" y="226.2" width="14.6" height="7.3"/>
	<rect x="234.2" y="233.5" width="14.6" height="7.3"/>
</g>
</svg>
