<?xml version="1.0" encoding="utf-8"?>
<!-- Generator: Adobe Illustrator 28.3.0, SVG Export Plug-In . SVG Version: 6.00 Build 0)  -->
<svg version="1.1" id="Layer_1" xmlns="http://www.w3.org/2000/svg" xmlns:xlink="http://www.w3.org/1999/xlink" x="0px" y="0px"
	 viewBox="0 0 569 604" style="enable-background:new 0 0 569 604;" xml:space="preserve">
<style type="text/css">
	.st0{fill:#FFFFFF;}
</style>
<g>
	<path d="M48.2,16h34.1h34.2c1,0,1.9-0.9,1.9-2.1c0-0.3-0.1-0.7-0.2-0.9c-0.4-1.5-1.3-4.6-3.6-8.2C112.4,1.2,95.7,0,82.3,0
		c-13.4,0-30,1.2-32.2,4.8c-2.2,3.7-3.2,6.8-3.6,8.2c-0.1,0.3-0.2,0.6-0.2,0.9C46.3,15.1,47.1,16,48.2,16"/>
	<path d="M148.2,557.1c0,1.5-1.2,2.7-2.7,2.7c-1.5,0-2.7-1.2-2.7-2.7v-251l-0.1-5.6c-0.4-7.5-2.1-14.7-5.3-21.4l-0.1-0.1l-0.3-1
		c-5.2-16.8-18.6-37.2-20.1-39.5c-0.8-1.2-0.5-2.9,0.8-3.8c1.2-0.8,2.9-0.5,3.8,0.8c1.6,2.3,15.2,23.1,20.7,40.6l0.3,0.3l0,0.5
		c3.2,6.9,5,14.1,5.6,21.7l0.1,0v1.7c0,1,0.1,2,0.1,3.1V557.1z M53.1,151.1c-1,22.4-1.6,35.2-2.1,44.5c-0.3,6.4-0.6,11.1-0.8,15.9
		c-1.5,18.9-9.7,30.1-12.9,34.3c-0.3,0.4-0.6,0.8-0.8,1c-0.5,0.8-1.4,1.2-2.3,1.2c-0.5,0-1-0.2-1.5-0.4c-1.2-0.8-1.6-2.5-0.8-3.8
		c0.2-0.3,0.5-0.7,0.9-1.3c2.9-3.9,10.4-14.2,11.8-31.4c0.2-4.7,0.4-9.4,0.8-15.8c0.5-9.3,1.2-22.1,2.1-44.5
		c1.2-28.1,7.8-84.4,9.8-101c0.2-1.5,1.5-2.5,3-2.4c1.5,0.2,2.5,1.5,2.4,3C60.9,67.1,54.3,123.2,53.1,151.1 M26.4,259.3
		c-1.7,0-3.1-1.4-3.1-3.1c0-1.7,1.4-3.1,3.1-3.1c1.7,0,3.1,1.4,3.1,3.1C29.5,258,28.1,259.3,26.4,259.3 M162.3,298.6L162.3,298.6
		L162.3,298.6c0.1-1,0-2,0-2.9v-0.1v0c-0.4-8.1-2.4-15.8-5.7-22.8c-9.2-21.3-18.7-37.9-20.6-40.6c-1.8-2.7-7.5-9.3-9-29.4
		c-0.4-11.8-1.5-27.1-3.1-65c-1.2-28.2-8-85.9-9.7-100.7h0.1c1.5,0,2.7-1.2,2.7-2.8c0-1.5-1.2-2.8-2.7-2.8h-0.7l-0.8-10.1h-0.1H83.1
		h-1.6H51.9l-0.8,10.1h-0.7c-1.5,0-2.7,1.2-2.7,2.8c0,1.5,1.2,2.8,2.7,2.8h0.1c-1.8,14.9-8.5,72.5-9.8,100.7
		c-1.6,37.9-2.6,53.1-3.1,65c-1.6,20.1-7.2,26.7-9.1,29.4c-1.8,2.7-11.4,19.3-20.6,40.6c-3.3,7-5.3,14.7-5.7,22.8h0v0.1
		c0,1-0.1,1.9-0.1,2.9h0.1H2.3v270.9c0,9.2,4.3,17.3,11,22.5c0.8,0.9,2,1.7,3.5,2.4h0c3,1.7,6.3,2.8,9.8,3.3
		c15.7,4.3,34.8,5.7,47.9,6.2l0,0.1h0.1c0.4,0,3.2,0.1,7.6,0c4.8,0,7.7,0,7.7,0l0-0.1c13.1-0.4,32.2-1.8,47.9-6.2
		c3.5-0.5,6.8-1.6,9.8-3.3c1.6-0.7,2.7-1.5,3.6-2.4c6.7-5.2,11-13.3,11-22.5L162.3,298.6L162.3,298.6z"/>
	<g>
		<polygon class="st0" points="36.3,457.8 36.3,460.4 36.3,463 36.3,468.2 38.9,468.2 38.9,463 38.9,460.4 38.9,457.8 38.9,455.2 
			36.3,455.2 		"/>
		<polygon class="st0" points="23.3,470.8 23.3,473.4 23.3,476 25.9,476 25.9,473.4 25.9,470.8 28.5,470.8 28.5,468.2 23.3,468.2 		
			"/>
		<polygon class="st0" points="23.3,460.4 23.3,457.8 23.3,455.2 20.7,455.2 20.7,457.8 20.7,460.4 20.7,463 20.7,468.2 23.3,468.2 
			23.3,463 		"/>
		<polygon class="st0" points="31.1,457.8 31.1,455.2 28.5,455.2 28.5,457.8 28.5,463 28.5,468.2 31.1,468.2 31.1,463 		"/>
		<polygon class="st0" points="31.1,470.8 33.7,470.8 33.7,473.4 33.7,476 36.3,476 36.3,473.4 36.3,470.8 36.3,468.2 31.1,468.2 		
			"/>
		<polygon class="st0" points="54.5,455.2 44.1,455.2 41.5,455.2 41.5,457.8 41.5,460.4 41.5,463 41.5,465.6 41.5,470.8 41.5,473.4 
			41.5,476 44.1,476 54.5,476 57.1,476 59.7,476 59.7,473.4 57.1,473.4 54.5,473.4 44.1,473.4 44.1,470.8 44.1,465.6 57.1,465.6 
			59.7,465.6 59.7,463 57.1,463 44.1,463 44.1,460.4 44.1,457.8 54.5,457.8 57.1,457.8 59.7,457.8 59.7,455.2 57.1,455.2 		"/>
		<polygon class="st0" points="75.2,473.4 64.8,473.4 64.8,470.8 64.8,463 64.8,460.4 64.8,457.8 64.8,455.2 62.2,455.2 62.2,457.8 
			62.2,460.4 62.2,463 62.2,470.8 62.2,473.4 62.2,476 64.8,476 75.2,476 77.8,476 80.4,476 80.4,473.4 77.8,473.4 		"/>
		<rect x="36.3" y="493.4" class="st0" width="2.6" height="2.6"/>
		<rect x="36.3" y="501.2" class="st0" width="2.6" height="2.6"/>
		<polygon class="st0" points="33.7,490.8 33.7,488.2 25.9,488.2 25.9,490.8 33.7,490.8 33.7,493.4 36.3,493.4 36.3,490.8 		"/>
		<rect x="33.7" y="503.8" class="st0" width="2.6" height="2.6"/>
		<rect x="25.9" y="506.4" class="st0" width="7.8" height="2.6"/>
		<rect x="23.3" y="503.8" class="st0" width="2.6" height="2.6"/>
		<rect x="20.7" y="493.4" class="st0" width="2.6" height="10.4"/>
		<rect x="23.3" y="490.8" class="st0" width="2.6" height="2.6"/>
		<rect x="54.5" y="503.8" class="st0" width="2.6" height="2.6"/>
		<rect x="57.1" y="493.4" class="st0" width="2.6" height="10.4"/>
		<rect x="44.1" y="490.8" class="st0" width="2.6" height="2.6"/>
		<rect x="44.1" y="503.8" class="st0" width="2.6" height="2.6"/>
		<polygon class="st0" points="54.5,490.8 54.5,488.2 46.7,488.2 46.7,490.8 54.5,490.8 54.5,493.4 57.1,493.4 57.1,490.8 		"/>
		<rect x="46.7" y="506.4" class="st0" width="7.8" height="2.6"/>
		<rect x="41.5" y="493.4" class="st0" width="2.6" height="10.4"/>
		<polygon class="st0" points="64.8,493.4 64.8,490.8 64.8,488.2 62.2,488.2 62.2,490.8 62.2,493.4 62.2,503.8 62.2,506.4 62.2,509 
			64.8,509 64.8,506.4 64.8,503.8 64.8,496 67.4,496 67.4,493.4 		"/>
		<polygon class="st0" points="77.8,490.8 77.8,493.4 75.2,493.4 75.2,496 77.8,496 77.8,498.6 77.8,501.2 77.8,503.8 77.8,506.4 
			77.8,509 80.4,509 80.4,506.4 80.4,503.8 80.4,501.2 80.4,498.6 80.4,493.4 80.4,490.8 80.4,488.2 77.8,488.2 		"/>
		<polygon class="st0" points="67.4,498.6 70,498.6 70,501.2 72.6,501.2 72.6,498.6 75.2,498.6 75.2,496 67.4,496 		"/>
		<polygon class="st0" points="85.6,490.8 96,490.8 98.6,490.8 101.2,490.8 101.2,488.2 98.6,488.2 96,488.2 85.6,488.2 83,488.2 
			83,490.8 83,493.4 83,496 83,498.6 83,503.8 83,506.4 83,509 85.6,509 96,509 98.6,509 101.2,509 101.2,506.4 98.6,506.4 
			96,506.4 85.6,506.4 85.6,503.8 85.6,498.6 98.6,498.6 101.2,498.6 101.2,496 98.6,496 85.6,496 85.6,493.4 		"/>
	</g>
</g>
<g>
	<path d="M284.1,393.6c0.9-21.1,9-53.7,17.7-88.3c11-44,23.5-93.9,23.5-131.1c0-29.8-4.6-58.8-12.5-79.5c-0.8-2.1-2.7-3.4-4.7-3.4
		H172.7c-2.1,0-3.9,1.4-4.7,3.4c-8,20.7-12.5,49.7-12.5,79.5c0,37.2,12.5,87.1,23.5,131.1c8.6,34.6,16.8,67.2,17.7,88.3
		c1.6,38.8-5.7,57.2-12.2,73.4c-4.6,11.6-9,22.6-9,38.4c0,12.8,9.6,23.3,21.3,23.3H284c11.8,0,21.3-10.4,21.3-23.3
		c0-15.8-4.4-26.8-9-38.4C289.8,450.8,282.5,432.4,284.1,393.6"/>
	<g>
		<rect x="181.5" y="135.5" class="st0" width="2.4" height="2.4"/>
		<rect x="191.1" y="135.5" class="st0" width="2.4" height="2.4"/>
		<rect x="193.5" y="133.1" class="st0" width="2.4" height="2.4"/>
		<rect x="193.5" y="125.9" class="st0" width="2.4" height="2.4"/>
		<rect x="183.9" y="137.9" class="st0" width="7.2" height="2.4"/>
		<polygon class="st0" points="191.1,123.5 191.1,121.1 183.9,121.1 183.9,123.5 191.1,123.5 191.1,125.9 193.5,125.9 193.5,123.5 
					"/>
		<rect x="179" y="125.9" class="st0" width="2.4" height="9.6"/>
		<rect x="181.5" y="123.5" class="st0" width="2.4" height="2.4"/>
		<polygon class="st0" points="200.7,125.9 200.7,123.5 212.7,123.5 212.7,121.1 200.7,121.1 198.3,121.1 198.3,123.5 198.3,125.9 
			198.3,128.3 198.3,130.7 198.3,135.5 198.3,137.9 198.3,140.3 200.7,140.3 200.7,137.9 200.7,135.5 200.7,133.1 203.1,133.1 
			203.1,130.7 212.7,130.7 212.7,128.3 200.7,128.3 		"/>
		<polygon class="st0" points="212.7,125.9 212.7,128.3 215.1,128.3 215.1,125.9 215.1,123.5 212.7,123.5 		"/>
		<rect x="212.7" y="137.9" class="st0" width="2.4" height="2.4"/>
		<rect x="203.1" y="133.1" class="st0" width="4.8" height="2.4"/>
		<rect x="207.9" y="135.5" class="st0" width="4.8" height="2.4"/>
		<polygon class="st0" points="217.5,137.9 217.5,140.3 219.9,140.3 219.9,137.9 219.9,135.5 217.5,135.5 		"/>
		<polygon class="st0" points="227.1,123.5 227.1,121.1 224.7,121.1 224.7,123.5 224.7,125.9 227.1,125.9 		"/>
		<polygon class="st0" points="232,130.7 229.5,130.7 229.5,133.1 222.3,133.1 222.3,130.7 219.9,130.7 219.9,133.1 219.9,135.5 
			222.3,135.5 229.5,135.5 232,135.5 232,133.1 		"/>
		<polygon class="st0" points="227.1,130.7 229.5,130.7 229.5,128.3 229.5,125.9 227.1,125.9 227.1,128.3 		"/>
		<polygon class="st0" points="224.7,128.3 224.7,125.9 222.3,125.9 222.3,128.3 222.3,130.7 224.7,130.7 		"/>
		<polygon class="st0" points="232,137.9 232,140.3 234.4,140.3 234.4,137.9 234.4,135.5 232,135.5 		"/>
		<polygon class="st0" points="248.8,121.1 239.2,121.1 236.8,121.1 236.8,123.5 236.8,125.9 236.8,128.3 236.8,130.7 236.8,135.5 
			236.8,137.9 236.8,140.3 239.2,140.3 239.2,137.9 239.2,135.5 239.2,130.7 251.2,130.7 253.6,130.7 253.6,128.3 251.2,128.3 
			239.2,128.3 239.2,125.9 239.2,123.5 248.8,123.5 251.2,123.5 253.6,123.5 253.6,121.1 251.2,121.1 		"/>
		<polygon class="st0" points="268,121.1 260.8,121.1 258.4,121.1 256,121.1 256,123.5 258.4,123.5 260.8,123.5 263.2,123.5 
			263.2,130.7 263.2,137.9 263.2,140.3 265.6,140.3 265.6,137.9 265.6,130.7 265.6,123.5 268,123.5 270.4,123.5 272.8,123.5 
			272.8,121.1 270.4,121.1 		"/>
		<polygon class="st0" points="181.5,158.9 181.5,156.5 181.5,154.1 193.5,154.1 193.5,151.7 181.5,151.7 179,151.7 179,154.1 
			179,156.5 179,158.9 179,161.3 179,166.1 179,168.6 179,171 181.5,171 193.5,171 193.5,168.6 181.5,168.6 181.5,166.1 
			181.5,161.3 183.9,161.3 193.5,161.3 193.5,158.9 183.9,158.9 		"/>
		<polygon class="st0" points="193.5,156.5 193.5,158.9 195.9,158.9 195.9,156.5 195.9,154.1 193.5,154.1 		"/>
		<polygon class="st0" points="193.5,168.6 195.9,168.6 195.9,163.7 195.9,161.3 193.5,161.3 193.5,163.7 		"/>
		<polygon class="st0" points="210.3,151.7 200.7,151.7 198.3,151.7 198.3,154.1 198.3,156.5 198.3,158.9 198.3,161.3 198.3,166.1 
			198.3,168.6 198.3,171 200.7,171 210.3,171 212.7,171 215.1,171 215.1,168.6 212.7,168.6 210.3,168.6 200.7,168.6 200.7,166.1 
			200.7,161.3 212.7,161.3 215.1,161.3 215.1,158.9 212.7,158.9 200.7,158.9 200.7,156.5 200.7,154.1 210.3,154.1 212.7,154.1 
			215.1,154.1 215.1,151.7 212.7,151.7 		"/>
		<polygon class="st0" points="229.5,151.7 219.9,151.7 217.5,151.7 217.5,154.1 217.5,156.5 217.5,158.9 217.5,161.3 217.5,166.1 
			217.5,168.6 217.5,171 219.9,171 229.5,171 232,171 234.4,171 234.4,168.6 232,168.6 229.5,168.6 219.9,168.6 219.9,166.1 
			219.9,161.3 232,161.3 234.4,161.3 234.4,158.9 232,158.9 219.9,158.9 219.9,156.5 219.9,154.1 229.5,154.1 232,154.1 
			234.4,154.1 234.4,151.7 232,151.7 		"/>
		<rect x="241.6" y="163.7" class="st0" width="4.8" height="2.4"/>
		<polygon class="st0" points="239.2,156.5 239.2,154.1 251.2,154.1 251.2,151.7 239.2,151.7 236.8,151.7 236.8,154.1 236.8,156.5 
			236.8,158.9 236.8,161.3 236.8,166.1 236.8,168.6 236.8,171 239.2,171 239.2,168.6 239.2,166.1 239.2,163.7 241.6,163.7 
			241.6,161.3 251.2,161.3 251.2,158.9 239.2,158.9 		"/>
		<rect x="251.2" y="168.6" class="st0" width="2.4" height="2.4"/>
		<polygon class="st0" points="251.2,156.5 251.2,158.9 253.6,158.9 253.6,156.5 253.6,154.1 251.2,154.1 		"/>
		<rect x="246.4" y="166.1" class="st0" width="4.8" height="2.4"/>
		<polygon class="st0" points="191.1,199.2 181.5,199.2 181.5,196.8 181.5,189.5 181.5,187.1 181.5,184.7 181.5,182.3 179,182.3 
			179,184.7 179,187.1 179,189.5 179,196.8 179,199.2 179,201.6 181.5,201.6 191.1,201.6 193.5,201.6 195.9,201.6 195.9,199.2 
			193.5,199.2 		"/>
		<rect x="207.9" y="196.8" class="st0" width="2.4" height="2.4"/>
		<rect x="198.3" y="196.8" class="st0" width="2.4" height="2.4"/>
		<rect x="210.3" y="187.1" class="st0" width="2.4" height="9.6"/>
		<rect x="195.9" y="187.1" class="st0" width="2.4" height="9.6"/>
		<rect x="200.7" y="199.2" class="st0" width="7.2" height="2.4"/>
		<polygon class="st0" points="208,184.7 208,182.3 200.7,182.3 200.7,184.7 207.9,184.7 207.9,187.1 210.3,187.1 210.3,184.7 		"/>
		<rect x="198.3" y="184.7" class="st0" width="2.4" height="2.4"/>
		<polygon class="st0" points="220,187.1 217.5,187.1 217.5,189.5 217.5,191.9 220,191.9 220,189.5 		"/>
		<polygon class="st0" points="217.5,182.3 215.1,182.3 215.1,184.7 215.1,187.1 217.5,187.1 217.5,184.7 		"/>
		<polygon class="st0" points="222.4,199.2 222.4,201.6 224.8,201.6 224.8,199.2 224.8,196.8 222.4,196.8 		"/>
		<polygon class="st0" points="227.2,189.5 227.2,191.9 229.6,191.9 229.6,189.5 229.6,187.1 227.2,187.1 		"/>
		<polygon class="st0" points="229.6,184.7 229.6,187.1 232,187.1 232,184.7 232,182.3 229.6,182.3 		"/>
		<polygon class="st0" points="222.4,191.9 220,191.9 220,194.4 220,196.8 222.4,196.8 222.4,194.4 		"/>
		<polygon class="st0" points="224.8,194.4 224.8,196.8 227.2,196.8 227.2,194.4 227.2,191.9 224.8,191.9 		"/>
		<polygon class="st0" points="246.4,182.3 236.8,182.3 234.4,182.3 234.4,184.7 234.4,187.1 234.4,189.5 234.4,191.9 234.4,196.8 
			234.4,199.2 234.4,201.6 236.8,201.6 246.4,201.6 248.8,201.6 251.2,201.6 251.2,199.2 248.8,199.2 246.4,199.2 236.8,199.2 
			236.8,196.8 236.8,191.9 248.8,191.9 251.2,191.9 251.2,189.5 248.8,189.5 236.8,189.5 236.8,187.1 236.8,184.7 246.4,184.7 
			248.8,184.7 251.2,184.7 251.2,182.3 248.8,182.3 		"/>
		<rect x="258.4" y="194.4" class="st0" width="4.8" height="2.4"/>
		<polygon class="st0" points="256,187.1 256,184.7 268,184.7 268,182.3 256,182.3 253.6,182.3 253.6,184.7 253.6,187.1 
			253.6,189.5 253.6,191.9 253.6,196.8 253.6,199.2 253.6,201.6 256,201.6 256,199.2 256,196.8 256,194.4 258.4,194.4 258.4,191.9 
			268,191.9 268,189.5 256,189.5 		"/>
		<polygon class="st0" points="268,187.1 268,189.5 270.5,189.5 270.5,187.1 270.5,184.7 268,184.7 		"/>
		<rect x="263.2" y="196.8" class="st0" width="4.8" height="2.4"/>
		<rect x="268" y="199.2" class="st0" width="2.4" height="2.4"/>
		<rect x="272.9" y="182.3" class="st0" width="2.4" height="4.8"/>
		<rect x="277.7" y="184.7" class="st0" width="2.4" height="4.8"/>
		<polygon class="st0" points="289.7,182.3 282.5,182.3 280.1,182.3 280.1,184.7 282.5,184.7 289.7,184.7 292.1,184.7 292.1,182.3 
					"/>
		<rect x="292.1" y="184.7" class="st0" width="2.4" height="2.4"/>
		<rect x="292.1" y="191.9" class="st0" width="2.4" height="7.2"/>
		<rect x="277.7" y="196.8" class="st0" width="2.4" height="2.4"/>
		<rect x="280.1" y="189.5" class="st0" width="12" height="2.4"/>
		<polygon class="st0" points="282.5,199.2 280.1,199.2 280.1,201.6 282.5,201.6 289.7,201.6 292.1,201.6 292.1,199.2 289.7,199.2 
					"/>
	</g>
</g>
<path d="M536.3,480.9l-29.5,13c0.1-28.8-1.6-99.6-1.8-116l25.1,0.3L536.3,480.9z M467.9,526.5c0,3.6-2.9,6.5-6.5,6.5
	c-3.6,0-6.5-2.9-6.5-6.5v-142c0-3.6,2.9-6.5,6.5-6.5c3.6,0,6.5,2.9,6.5,6.5V526.5z M419.6,526.5c0,3.6-2.9,6.5-6.5,6.5
	c-3.6,0-6.5-2.9-6.5-6.5v-142c0-3.6,2.9-6.5,6.5-6.5c3.6,0,6.5,2.9,6.5,6.5V526.5z M373.1,526.5c0,3.6-2.9,6.5-6.5,6.5
	c-3.6,0-6.5-2.9-6.5-6.5v-142c0-3.6,2.9-6.5,6.5-6.5c3.6,0,6.5,2.9,6.5,6.5V526.5z M566.9,478.4L560.4,376
	c-1.2-17.9-16-31.8-33.9-31.8H505c0-4.9,0-26.1,0.1-31c-26.1,0-161.2-0.1-177.7-0.1c0,12.4-1,225.3-0.9,266.2
	c-1.3,11.1,6.6,21.2,17.7,22.5c0.8,0.1,1.6,0.1,2.4,0.1h141c11.1,0,20.2-9,20.2-20.2l0-51.3l41.8-20.3
	C560.9,503.8,567.7,491.5,566.9,478.4"/>
</svg>
