<svg width="35" height="35" viewBox="0 0 35 35" fill="none" xmlns="http://www.w3.org/2000/svg">
<g clip-path="url(#clip0_171_8336)">
<path d="M17.5 35C7.9 35 0 27.1 0 17.5C0 7.9 7.9 0 17.5 0C27.1 0 35 7.9 35 17.5C35 27.1 27.1 35 17.5 35ZM17.5 1C8.4 1 1 8.4 1 17.5C1 26.6 8.4 34 17.5 34C26.6 34 34 26.6 34 17.5C34 8.4 26.6 1 17.5 1Z" fill="white"/>
<path d="M20.7999 19.5C19.7999 19.5 18.9999 18.6 18.9999 17.5C18.9999 16.4 19.7999 15.5 20.7999 15.5C21.7999 15.5 22.5999 16.4 22.5999 17.5C22.5999 18.6 21.7999 19.5 20.7999 19.5ZM14.1999 19.5C13.1999 19.5 12.3999 18.6 12.3999 17.5C12.3999 16.4 13.1999 15.5 14.1999 15.5C15.1999 15.5 15.9999 16.4 15.9999 17.5C15.9999 18.6 15.1999 19.5 14.1999 19.5ZM24.3999 10.4C23.0999 9.79997 21.7999 9.39998 20.2999 9.09998H20.1999C19.9999 9.39998 19.7999 9.79998 19.6999 10.1C18.1999 9.89998 16.5999 9.89998 15.0999 10.1C14.9999 9.79998 14.7999 9.39998 14.5999 9.09998C14.5999 9.09998 14.5999 9.09998 14.4999 9.09998C13.0999 9.29998 11.6999 9.79997 10.3999 10.4C7.79994 14.3 7.09994 18.1 7.39994 21.8C9.09994 23.1 10.7999 23.8 12.3999 24.3H12.4999C12.8999 23.8 13.1999 23.2 13.4999 22.6V22.5C12.9999 22.3 12.3999 22 11.8999 21.8V21.7C11.9999 21.6 12.0999 21.5 12.1999 21.5C12.1999 21.5 12.1999 21.5 12.2999 21.5C15.5999 23 19.0999 23 22.3999 21.5C22.3999 21.5 22.3999 21.5 22.4999 21.5C22.5999 21.6 22.6999 21.7 22.7999 21.7V21.8C22.2999 22.1 21.7999 22.3 21.1999 22.5C21.1999 22.5 21.0999 22.6 21.1999 22.6C21.4999 23.2 21.7999 23.7 22.1999 24.3C22.1999 24.3 22.1999 24.3 22.2999 24.3C23.8999 23.8 25.5999 23 27.2999 21.8C27.7999 17.5 26.6999 13.8 24.3999 10.4Z" fill="white"/>
</g>
<defs>
<clipPath id="clip0_171_8336">
<rect width="35" height="35" fill="white"/>
</clipPath>
</defs>
</svg>
