<?xml version="1.0" encoding="utf-8"?>
<!-- Generator: Adobe Illustrator 28.3.0, SVG Export Plug-In . SVG Version: 6.00 Build 0)  -->
<svg version="1.1"
	 id="Layer_1" xmlns:inkscape="http://www.inkscape.org/namespaces/inkscape" xmlns:sodipodi="http://sodipodi.sourceforge.net/DTD/sodipodi-0.dtd" xmlns:cc="http://creativecommons.org/ns#" xmlns:svg="http://www.w3.org/2000/svg" xmlns:rdf="http://www.w3.org/1999/02/22-rdf-syntax-ns#" xmlns:dc="http://purl.org/dc/elements/1.1/"
	 xmlns="http://www.w3.org/2000/svg" xmlns:xlink="http://www.w3.org/1999/xlink" x="0px" y="0px" viewBox="0 0 35 35"
	 style="enable-background:new 0 0 35 35;" xml:space="preserve">
<style type="text/css">
	.st0{fill:#FFFFFF;}
</style>
<path class="st0" d="M17.5,35C7.9,35,0,27.1,0,17.5S7.9,0,17.5,0C27.1,0,35,7.9,35,17.5S27.1,35,17.5,35z M17.5,1
	C8.4,1,1,8.4,1,17.5C1,26.6,8.4,34,17.5,34S34,26.6,34,17.5C34,8.4,26.6,1,17.5,1z"/>
<path class="st0" d="M19.4,34V21.8h4.1l0.8-5.1h-4.8v-3.3c0-1.4,0.7-2.7,2.8-2.7h2.2V6.4c0,0-2-0.3-3.9-0.3c-4,0-6.6,2.4-6.6,6.8
	v3.9H9.5v5.1h4.4V34C13.9,34,14.6,34,19.4,34z"/>
</svg>
