<svg width="35" height="35" viewBox="0 0 35 35" fill="none" xmlns="http://www.w3.org/2000/svg">
<g clip-path="url(#clip0_171_8339)">
<path d="M17.5 35C7.9 35 0 27.1 0 17.5C0 7.9 7.9 0 17.5 0C27.1 0 35 7.9 35 17.5C35 27.1 27.1 35 17.5 35ZM17.5 1C8.4 1 1 8.4 1 17.5C1 26.6 8.4 34 17.5 34C26.6 34 34 26.6 34 17.5C34 8.4 26.6 1 17.5 1Z" fill="white"/>
<path d="M17.5 22.5C14.7 22.5 12.5 20.2 12.5 17.5C12.5 14.7 14.8 12.5 17.5 12.5C20.2 12.5 22.5 14.8 22.5 17.5C22.5 20.3 20.3 22.5 17.5 22.5ZM17.5 13.5C15.3 13.5 13.5 15.3 13.5 17.5C13.5 19.7 15.3 21.5 17.5 21.5C19.7 21.5 21.5 19.7 21.5 17.5C21.5 15.3 19.7 13.5 17.5 13.5Z" fill="white"/>
<path d="M23.9 12.3C23.9 12.8 23.5 13.1 23.1 13.1C22.6 13.1 22.3 12.7 22.3 12.3C22.3 11.8 22.7 11.5 23.1 11.5C23.5 11.5 23.9 11.9 23.9 12.3Z" fill="white"/>
<path d="M23.8001 26.4H11.2001C9.7001 26.4 8.6001 25.2 8.6001 23.8V11.2C8.6001 9.69998 9.8001 8.59998 11.2001 8.59998H23.7001C25.2001 8.59998 26.3001 9.79998 26.3001 11.2V23.7C26.4001 25.2 25.2001 26.4 23.8001 26.4ZM11.2001 9.69998C10.3001 9.69998 9.6001 10.4 9.6001 11.3V23.8C9.6001 24.7 10.3001 25.4 11.2001 25.4H23.7001C24.6001 25.4 25.3001 24.7 25.3001 23.8V11.2C25.3001 10.3 24.6001 9.59998 23.7001 9.59998H11.2001V9.69998Z" fill="white"/>
</g>
<defs>
<clipPath id="clip0_171_8339">
<rect width="35" height="35" fill="white"/>
</clipPath>
</defs>
</svg>
