<svg width="35" height="35" viewBox="0 0 35 35" fill="none" xmlns="http://www.w3.org/2000/svg">
<g clip-path="url(#clip0_171_8331)">
<path d="M17.5 35C7.9 35 0 27.1 0 17.5C0 7.9 7.9 0 17.5 0C27.1 0 35 7.9 35 17.5C35 27.1 27.1 35 17.5 35ZM17.5 1C8.4 1 1 8.4 1 17.5C1 26.6 8.4 34 17.5 34C26.6 34 34 26.6 34 17.5C34 8.4 26.6 1 17.5 1Z" fill="white"/>
<path fill-rule="evenodd" clip-rule="evenodd" d="M9.30005 25.8C9.30005 26.6 9.90005 27.2 10.7 27.2H23.5C24.3 27.2 24.9 26.6 24.9 25.8V14.8C24.9 10.2 21.7 7 17.1 7C12.5 7 9.30005 10.2 9.30005 14.8V25.8ZM10.2 14.8C10.2 10.7 13 7.90002 17.1 7.90002C21.3 7.90002 24 10.7 24 14.8V25.8C24 26.1 23.8 26.3 23.5 26.3H10.7C10.4 26.3 10.2 26.1 10.2 25.8V14.8Z" fill="white"/>
</g>
<defs>
<clipPath id="clip0_171_8331">
<rect width="35" height="35" fill="white"/>
</clipPath>
</defs>
</svg>
