<?xml version="1.0" encoding="utf-8"?>
<!-- Generator: Adobe Illustrator 28.1.0, SVG Export Plug-In . SVG Version: 6.00 Build 0)  -->
<svg version="1.1" id="Layer_1" xmlns="http://www.w3.org/2000/svg" xmlns:xlink="http://www.w3.org/1999/xlink" x="0px" y="0px"
	 viewBox="0 0 428 428" style="enable-background:new 0 0 428 428;" xml:space="preserve">
<style type="text/css">
	.st0{fill:#FFFFFF;}
</style>
<polygon points="0,0 428,428 428,51.5 376.5,0 "/>
<g>
	<path class="st0" d="M207.2,65.6c1.3-1.3,3.3-1.3,4.6,0l0.5,0.5c1,1,1.2,2.2,0.9,3.4l-4.5,20.3l20.3-4.5c1.3-0.3,2.3,0,3.3,0.9
		l0.5,0.5c1.3,1.3,1.3,3.4,0,4.6L211,113.1c-1.3,1.3-3.3,1.3-4.6,0c-1.2-1.2-1.2-3.3,0-4.5L222,92.8L206.1,96
		c-1.2,0.3-2.3,0.1-3.1-0.7c-0.8-0.8-1-1.9-0.7-3.1l3.2-15.8L189.8,92c-1.3,1.3-3.2,1.2-4.5,0c-1.3-1.3-1.3-3.2,0-4.5L207.2,65.6z"
		/>
	<path class="st0" d="M239.8,98.1c1.3-1.3,3.3-1.3,4.6,0c1.3,1.3,1.3,3.3,0,4.5l-21.9,21.9c-1.3,1.3-3.3,1.3-4.5,0
		c-1.3-1.3-1.3-3.3,0-4.6L239.8,98.1z"/>
	<path class="st0" d="M229.6,130.1c-0.1-0.9,0.1-1.9,0.9-2.6c1.2-1.2,3.1-1.2,4.3,0c0.6,0.6,0.9,1.2,0.9,1.8c0.4,3.9,1.8,7.2,4.6,10
		c2.8,2.8,6,3.3,7.9,1.3l0.1-0.1c1.9-1.9,1.8-3.9-1.9-9.9c-4.2-6.9-5.7-11.7-0.9-16.5l0.1-0.1c4.5-4.5,11.3-3.8,16.5,1.3
		c3.3,3.3,5.1,6.8,5.8,10.7c0.2,0.8,0.1,1.9-0.8,2.8c-1.2,1.2-3.1,1.2-4.3,0c-0.4-0.4-0.7-0.9-0.9-1.5c-0.7-3.3-2-5.9-4-8
		c-2.7-2.7-5.6-2.9-7.3-1.2l-0.1,0.1c-2,2-1.7,4.1,2.1,10.3c4.2,6.9,5,11.7,0.7,16l-0.1,0.1c-4.9,4.9-11.6,3.9-17.1-1.5
		C232.6,139.6,230.4,135.2,229.6,130.1z"/>
	<path class="st0" d="M253.1,153.6c-0.1-0.9,0.1-1.9,0.9-2.6c1.2-1.2,3.1-1.2,4.3,0c0.6,0.6,0.9,1.2,0.9,1.8c0.4,3.9,1.8,7.2,4.6,10
		c2.8,2.8,6,3.3,7.9,1.3l0.1-0.1c1.9-1.9,1.8-3.9-1.9-9.9c-4.2-6.9-5.7-11.7-0.9-16.5l0.1-0.1c4.5-4.5,11.3-3.8,16.5,1.3
		c3.3,3.3,5.1,6.8,5.8,10.7c0.2,0.8,0.1,1.9-0.8,2.8c-1.2,1.2-3.1,1.2-4.3,0c-0.4-0.4-0.7-0.9-0.9-1.5c-0.7-3.3-2-5.9-4-8
		c-2.7-2.7-5.6-2.9-7.3-1.2l-0.1,0.1c-2,2-1.7,4.1,2.1,10.3c4.2,6.9,5,11.7,0.7,16l-0.1,0.1c-4.9,4.9-11.6,3.9-17.1-1.5
		C256.1,163.1,253.9,158.7,253.1,153.6z"/>
	<path class="st0" d="M299,157.3c1.3-1.3,3.3-1.3,4.6,0c1.3,1.3,1.3,3.3,0,4.5l-21.9,21.9c-1.3,1.3-3.3,1.3-4.5,0
		c-1.3-1.3-1.3-3.3,0-4.6L299,157.3z"/>
	<path class="st0" d="M310.5,168.9c1.3-1.3,3.3-1.3,4.6,0l0.5,0.5c1.1,1.1,1.2,2.3,1,3.7l-3.8,29.9l16-16c1.2-1.2,3.2-1.2,4.5,0
		c1.3,1.3,1.3,3.3,0,4.5l-21.9,21.9c-1.3,1.3-3.2,1.3-4.5,0l-0.2-0.2c-1.1-1.1-1.2-2.3-1-3.8l3.9-30.8l-16.5,16.5
		c-1.2,1.2-3.2,1.2-4.5,0c-1.3-1.3-1.3-3.3,0-4.5L310.5,168.9z"/>
	<path class="st0" d="M327.8,208.1L327.8,208.1c7.4-7.4,19.1-8,27-0.1c3.9,3.9,5.6,7.4,6.3,11.5c0.1,0.8,0,1.9-0.9,2.8
		c-1.2,1.2-3.3,1.3-4.5,0c-0.6-0.6-0.8-1.3-0.9-1.9c-0.4-2.9-1.5-5.5-4.3-8.4c-4.8-4.8-12.7-4.2-17.7,0.7l-0.1,0.1
		c-5.4,5.4-5.8,12.9-0.4,18.2c2.5,2.5,5.5,3.9,8.3,4.3l4.9-4.9l-5.1-5.1c-1.1-1.1-1.2-2.9-0.1-4c1.1-1.1,2.9-1.1,4.1,0l7.3,7.3
		c1.3,1.3,1.3,3.3,0,4.6l-7,7c-1.3,1.3-2.8,1.7-4.5,1.3c-3.7-0.7-8.2-2.5-12.1-6.4C319.7,226.9,320.2,215.7,327.8,208.1z"/>
</g>
<path class="st0" d="M320.3,83.3c2.6,2.6,6.7,2.6,9.3,0c2.6-2.6,2.6-6.7,0-9.3c-2.6-2.6-6.7-2.6-9.3,0
	C317.8,76.6,317.8,80.8,320.3,83.3"/>
<path class="st0" d="M349.3,112.3c2.6,2.6,6.7,2.6,9.3,0c2.6-2.6,2.6-6.7,0-9.3c-2.6-2.6-6.7-2.6-9.3,0
	C346.7,105.5,346.7,109.7,349.3,112.3"/>
<path class="st0" d="M327,137.9c-0.8,0-1.7-0.3-2.3-1l-29-29c-1.3-1.3-1.3-3.4,0-4.7c1.3-1.3,3.4-1.3,4.7,0l29,29
	c1.3,1.3,1.3,3.4,0,4.7C328.7,137.5,327.8,137.9,327,137.9z"/>
</svg>
