<?xml version="1.0" encoding="utf-8"?>
<!-- Generator: Adobe Illustrator 23.1.0, SVG Export Plug-In . SVG Version: 6.00 Build 0)  -->
<svg version="1.1"
	 id="Layer_1" xmlns:cc="http://creativecommons.org/ns#" xmlns:dc="http://purl.org/dc/elements/1.1/" xmlns:inkscape="http://www.inkscape.org/namespaces/inkscape" xmlns:rdf="http://www.w3.org/1999/02/22-rdf-syntax-ns#" xmlns:sodipodi="http://sodipodi.sourceforge.net/DTD/sodipodi-0.dtd" xmlns:svg="http://www.w3.org/2000/svg"
	 xmlns="http://www.w3.org/2000/svg" xmlns:xlink="http://www.w3.org/1999/xlink" x="0px" y="0px" viewBox="0 0 21.3 23"
	 style="enable-background:new 0 0 21.3 23;" xml:space="preserve">
<path d="M0,12.3C0,18.2,4.8,23,10.7,23c5.9,0,10.6-4.8,10.6-10.6"/>
<path d="M7.8,4.8L7.1,4.1l0.7-0.7c0.8-0.8,0.8-2,0-2.8C7-0.2,5.8-0.2,5,0.6L4.3,1.3L3.6,0.6c-0.8-0.8-2-0.8-2.8,0
	c-0.8,0.8-0.8,2,0,2.8l0.7,0.7L0.7,4.8c-0.8,0.8-0.8,2,0,2.8C1.1,8,1.6,8.2,2.1,8.2s1-0.2,1.4-0.6l0.7-0.7L5,7.7
	C5.4,8,5.9,8.2,6.4,8.2s1-0.2,1.4-0.6C8.6,6.9,8.6,5.6,7.8,4.8z"/>
<path d="M19.9,4.1l0.7-0.7c0.8-0.8,0.8-2,0-2.8s-2-0.8-2.8,0L17,1.3l-0.7-0.7c-0.8-0.8-2-0.8-2.8,0c-0.8,0.8-0.8,2,0,2.8l0.7,0.7
	l-0.7,0.7c-0.8,0.8-0.8,2,0,2.8c0.4,0.4,0.9,0.6,1.4,0.6s1-0.2,1.4-0.6L17,6.9l0.7,0.7c0.4,0.4,0.9,0.6,1.4,0.6s1-0.2,1.4-0.6
	c0.8-0.8,0.8-2,0-2.8L19.9,4.1z"/>
</svg>
