<?xml version="1.0" encoding="utf-8"?>
<!-- Generator: Adobe Illustrator 23.1.0, SVG Export Plug-In . SVG Version: 6.00 Build 0)  -->
<svg version="1.1"
	 id="Layer_1" xmlns:cc="http://creativecommons.org/ns#" xmlns:dc="http://purl.org/dc/elements/1.1/" xmlns:inkscape="http://www.inkscape.org/namespaces/inkscape" xmlns:rdf="http://www.w3.org/1999/02/22-rdf-syntax-ns#" xmlns:sodipodi="http://sodipodi.sourceforge.net/DTD/sodipodi-0.dtd" xmlns:svg="http://www.w3.org/2000/svg"
	 xmlns="http://www.w3.org/2000/svg" xmlns:xlink="http://www.w3.org/1999/xlink" x="0px" y="0px" viewBox="0 0 21.3 21.3"
	 style="enable-background:new 0 0 21.3 21.3;" xml:space="preserve">
<path d="M0,10.6c0,5.9,4.8,10.6,10.6,10.6c5.9,0,10.6-4.8,10.6-10.6"/>
<path d="M4.1,6.6c1.8,0,3.3-1.5,3.3-3.3C7.3,1.5,5.9,0,4.1,0S0.8,1.5,0.8,3.3C0.8,5.1,2.3,6.6,4.1,6.6"/>
<path d="M17.2,6.6c1.8,0,3.3-1.5,3.3-3.3C20.5,1.5,19,0,17.2,0c-1.8,0-3.3,1.5-3.3,3.3C13.9,5.1,15.4,6.6,17.2,6.6"/>
</svg>
