<svg width="35" height="35" viewBox="0 0 35 35" fill="none" xmlns="http://www.w3.org/2000/svg">
<g clip-path="url(#clip0_171_8328)">
<path d="M17.5 35C7.9 35 0 27.1 0 17.5C0 7.9 7.9 0 17.5 0C27.1 0 35 7.9 35 17.5C35 27.1 27.1 35 17.5 35ZM17.5 1C8.4 1 1 8.4 1 17.5C1 26.6 8.4 34 17.5 34C26.6 34 34 26.6 34 17.5C34 8.4 26.6 1 17.5 1Z" fill="white"/>
<path d="M17.1 18.5L16.5 17.6L11.5 10.4H13.7L17.8 16.2L18.4 17.1L23.7 24.7H21.5L17.1 18.5ZM19 16.2L25 9.30005H23.6L18.4 15.3L14.3 9.30005H9.5L15.7 18.4L9.5 25.7001H10.9L16.4 19.4L20.8 25.7001H25.6L19 16.2Z" fill="white"/>
</g>
<defs>
<clipPath id="clip0_171_8328">
<rect width="35" height="35" fill="white"/>
</clipPath>
</defs>
</svg>
